<?xml version="1.0" standalone="no"?>
<!DOCTYPE svg PUBLIC "-//W3C//DTD SVG 20010904//EN"
 "http://www.w3.org/TR/2001/REC-SVG-20010904/DTD/svg10.dtd">
<svg version="1.0" xmlns="http://www.w3.org/2000/svg"
 width="800.000000pt" height="800.000000pt" viewBox="0 0 800.000000 800.000000"
 preserveAspectRatio="xMidYMid meet">
<metadata>
Created by potrace 1.11, written by Peter Selinger 2001-2013
</metadata>
<g transform="translate(0.000000,800.000000) scale(0.100000,-0.100000)"
fill="#000000" stroke="none">
<path d="M3704 5786 c-22 -10 -36 -27 -51 -62 -46 -107 -453 -1235 -453 -1253
0 -30 50 -78 87 -86 26 -5 37 -1 62 22 26 24 61 113 237 598 114 314 211 574
215 578 5 7 1166 -218 1177 -228 5 -4 -246 -749 -337 -1000 -228 -626 -316
-755 -511 -755 -153 1 -235 101 -242 298 l-3 72 -70 29 c-260 107 -967 391
-975 391 -13 0 -25 -85 -24 -176 2 -152 64 -274 179 -354 53 -37 894 -417 965
-436 30 -9 91 -15 135 -15 237 1 387 110 521 380 88 178 223 544 435 1184 161
484 163 489 109 528 -17 12 -247 62 -710 154 -377 75 -692 138 -700 140 -8 2
-29 -2 -46 -9z"/>
<path d="M3853 5275 c-61 -26 -81 -90 -43 -138 24 -30 79 -49 121 -40 35 7 79
55 79 86 0 23 -35 87 -47 87 -5 0 -24 4 -44 9 -24 6 -46 4 -66 -4z"/>
<path d="M4140 5185 c-57 -30 -65 -118 -14 -151 26 -18 431 -134 465 -134 50
0 88 39 89 90 0 43 -20 73 -57 88 -37 15 -430 122 -446 122 -6 -1 -23 -7 -37
-15z"/>
<path d="M3696 4879 c-16 -15 -29 -38 -32 -60 -5 -30 -1 -42 22 -68 53 -59
150 -52 180 13 31 64 -13 124 -98 133 -37 4 -49 1 -72 -18z"/>
<path d="M3983 4810 c-55 -22 -69 -114 -23 -152 26 -21 436 -158 473 -158 37
0 87 49 87 85 0 14 -7 39 -15 55 -14 27 -34 36 -248 105 -127 41 -236 75 -242
74 -5 0 -20 -4 -32 -9z"/>
<path d="M3575 4541 c-58 -24 -76 -102 -34 -147 26 -28 75 -44 113 -37 31 6
76 56 76 84 0 28 -27 77 -48 87 -28 15 -85 21 -107 13z"/>
<path d="M3835 4438 c-55 -30 -71 -95 -35 -141 16 -20 66 -41 233 -96 116 -39
226 -71 244 -71 49 0 88 38 88 88 0 26 -7 48 -19 61 -13 14 -98 47 -249 96
-127 41 -233 75 -236 75 -3 0 -15 -6 -26 -12z"/>
<path d="M4775 2878 c-46 -24 -45 -18 -45 -499 0 -252 3 -465 6 -474 17 -44
116 -59 171 -25 l32 19 3 185 c3 177 4 187 26 208 31 31 93 31 124 0 22 -21
23 -32 28 -208 5 -168 7 -187 24 -200 43 -31 139 -30 171 2 22 23 22 380 -1
446 -55 163 -239 220 -345 107 l-29 -31 0 210 c0 116 -3 218 -6 227 -15 38
-113 59 -159 33z"/>
<path d="M1211 2827 c-50 -29 -50 -32 -51 -489 0 -413 1 -429 20 -448 25 -25
61 -34 111 -27 80 11 78 6 81 304 l3 264 64 -116 c35 -64 70 -123 78 -131 20
-20 79 -18 101 4 9 9 44 64 77 121 l60 103 5 -258 c3 -143 7 -260 8 -261 18
-20 73 -34 114 -31 94 9 88 -21 88 480 l0 440 -29 29 c-25 25 -37 29 -83 29
-92 0 -95 -4 -248 -268 -49 -86 -33 -96 -138 88 -89 158 -105 173 -180 177
-36 2 -66 -2 -81 -10z"/>
<path d="M2955 2820 c-78 -25 -127 -67 -162 -138 l-28 -57 0 -280 c0 -263 1
-283 21 -325 31 -67 68 -106 132 -137 52 -25 67 -28 167 -28 93 0 118 4 159
23 114 52 166 121 174 230 4 57 1 71 -16 92 -18 22 -28 25 -85 25 -81 0 -102
-16 -111 -84 -12 -89 -71 -128 -156 -102 -70 21 -75 37 -78 286 -4 256 2 289
58 318 47 24 114 18 146 -14 14 -14 27 -44 33 -74 5 -27 17 -54 26 -61 49 -36
159 -22 175 22 13 33 12 90 -1 139 -15 54 -98 134 -164 159 -76 28 -215 31
-290 6z"/>
<path d="M5505 2801 c-88 -36 -73 -159 22 -177 92 -17 163 61 123 137 -22 40
-95 60 -145 40z"/>
<path d="M2108 2480 c-39 -21 -68 -55 -68 -80 0 -8 54 -127 120 -263 66 -137
120 -260 120 -275 0 -14 -9 -45 -20 -68 -24 -49 -64 -72 -140 -81 -60 -7 -80
-29 -80 -86 0 -60 34 -87 108 -87 117 0 218 50 266 132 13 24 84 195 156 380
97 248 131 344 126 363 -14 54 -143 106 -178 72 -8 -8 -36 -89 -63 -179 -26
-89 -52 -174 -57 -187 -8 -21 -19 1 -84 165 -42 104 -83 195 -92 202 -23 17
-71 14 -114 -8z"/>
<path d="M3665 2495 c-5 -2 -29 -9 -52 -15 -90 -23 -124 -81 -88 -150 20 -38
54 -47 96 -24 23 12 57 18 102 19 60 0 71 -3 88 -24 10 -13 19 -33 19 -46 0
-21 -5 -22 -92 -28 -114 -8 -157 -21 -207 -64 -92 -78 -74 -246 32 -293 81
-37 172 -19 250 50 l37 32 0 -25 c0 -62 111 -91 166 -43 l28 23 -1 196 c-1
187 -2 199 -26 251 -43 94 -143 147 -276 145 -36 0 -70 -2 -76 -4z m165 -387
c0 -13 -9 -37 -20 -55 -36 -60 -94 -70 -119 -19 -12 25 -11 31 6 55 20 26 51
37 106 40 22 1 27 -3 27 -21z"/>
<path d="M4286 2486 c-56 -21 -87 -47 -113 -92 -43 -74 -25 -190 35 -231 15
-10 74 -33 131 -53 119 -40 140 -59 101 -92 -34 -28 -120 -20 -182 16 -60 35
-84 33 -108 -6 -30 -49 -26 -81 14 -115 48 -43 144 -67 244 -61 145 8 222 70
230 187 8 113 -45 172 -190 211 -106 28 -120 36 -116 63 5 38 67 46 144 19 34
-12 71 -22 82 -22 24 0 48 27 63 67 14 43 0 66 -57 94 -60 29 -218 37 -278 15z"/>
<path d="M5960 2485 c-65 -21 -138 -81 -173 -143 -28 -50 -30 -60 -30 -162 0
-98 2 -113 27 -163 31 -65 69 -100 146 -136 48 -23 68 -26 160 -26 118 0 165
12 216 57 41 36 45 81 13 122 -25 32 -48 33 -124 1 -33 -13 -75 -25 -93 -25
-69 0 -132 46 -132 97 0 21 2 22 166 25 l166 3 24 28 c19 23 24 39 24 85 -1
74 -25 127 -83 178 -78 69 -200 92 -307 59z m154 -149 c33 -14 54 -54 41 -76
-4 -6 -48 -10 -100 -10 l-94 0 5 27 c12 64 75 90 148 59z"/>
<path d="M6735 2485 c-16 -8 -44 -31 -62 -51 l-31 -35 -7 31 c-9 41 -54 64
-112 57 -85 -9 -83 -3 -83 -314 l0 -273 33 -20 c59 -36 161 -17 172 33 2 12 6
81 7 152 2 103 7 138 22 168 26 52 68 80 132 85 67 6 99 35 99 92 0 57 -35 90
-94 90 -25 0 -59 -7 -76 -15z"/>
<path d="M5500 2483 c-8 -3 -23 -12 -32 -21 -16 -14 -18 -41 -18 -289 l0 -273
33 -20 c55 -34 154 -19 171 25 3 9 6 136 6 281 l0 264 -32 20 c-32 19 -94 25
-128 13z"/>
</g>
</svg>
