<?xml version="1.0" standalone="no"?>
<!DOCTYPE svg PUBLIC "-//W3C//DTD SVG 20010904//EN"
 "http://www.w3.org/TR/2001/REC-SVG-20010904/DTD/svg10.dtd">
<svg version="1.0" xmlns="http://www.w3.org/2000/svg"
 width="1583.000000pt" height="1583.000000pt" viewBox="0 0 1583.000000 1583.000000"
 preserveAspectRatio="xMidYMid meet">
<metadata>
Created by potrace 1.11, written by Peter Selinger 2001-2013
</metadata>
<g transform="translate(0.000000,1583.000000) scale(0.100000,-0.100000)"
fill="#000000" stroke="none">
<path d="M3436 15814 c-423 -77 -778 -385 -916 -794 -12 -36 -30 -110 -40
-165 -17 -93 -18 -166 -16 -1125 1 -730 5 -1035 13 -1060 7 -19 14 -48 16 -65
6 -37 54 -180 73 -217 8 -16 21 -43 30 -60 34 -67 125 -195 181 -254 199 -211
430 -327 733 -370 25 -4 445 -7 935 -8 l890 -1 1 -772 1 -773 -66 -1 c-36 0
-295 0 -575 -1 -552 0 -570 -2 -670 -56 -71 -39 -148 -118 -183 -187 -17 -33
-60 -168 -96 -300 -36 -132 -75 -274 -86 -315 -12 -41 -23 -82 -25 -90 -2 -8
-11 -40 -19 -70 -53 -191 -79 -287 -82 -300 -2 -8 -14 -49 -25 -90 -39 -136
-151 -544 -156 -569 -3 -14 -7 -28 -10 -33 -3 -5 -7 -21 -10 -36 -2 -15 -9
-38 -14 -52 -5 -14 -25 -83 -44 -155 -19 -71 -71 -263 -116 -425 -45 -162
-137 -497 -205 -745 -68 -247 -160 -583 -205 -745 -114 -413 -221 -802 -225
-820 -3 -8 -11 -40 -20 -70 -9 -30 -17 -62 -19 -70 -2 -8 -25 -91 -51 -185
-26 -93 -51 -183 -55 -200 -5 -16 -15 -55 -23 -85 -19 -67 -173 -626 -192
-695 -7 -27 -30 -108 -50 -180 -20 -71 -38 -137 -40 -145 -1 -8 -9 -35 -16
-60 -7 -25 -13 -49 -15 -55 -1 -5 -34 -126 -73 -267 l-72 -258 3 -1187 3
-1188 23 -65 c81 -226 251 -379 482 -436 46 -11 973 -13 5525 -11 5033 2 5474
3 5515 18 92 34 165 70 209 106 50 39 141 133 141 144 0 4 6 14 14 21 23 24
68 127 87 202 17 67 18 139 19 1236 0 1144 0 1166 -20 1235 -12 39 -31 111
-45 160 -25 97 -118 437 -135 495 -5 19 -23 85 -40 145 -17 61 -35 126 -40
145 -12 41 -49 178 -55 200 -2 8 -27 98 -55 200 -29 102 -53 192 -55 200 -2 8
-27 98 -55 200 -28 102 -100 363 -160 580 -60 217 -161 586 -226 820 -64 234
-125 454 -135 490 -131 482 -185 678 -218 795 -39 137 -231 837 -277 1005 -12
47 -46 168 -74 270 -28 102 -60 217 -70 255 -10 39 -60 219 -110 400 -50 182
-98 355 -106 385 -48 177 -70 224 -144 299 -60 62 -151 113 -228 130 -27 6
-959 9 -2375 10 -1283 0 -2339 0 -2347 1 -13 0 -15 91 -14 763 1 419 2 767 3
773 1 8 244 11 894 12 491 0 918 3 948 7 72 9 219 48 297 79 338 134 625 468
701 816 5 25 13 59 18 75 4 17 8 494 10 1060 2 867 0 1043 -12 1112 -52 290
-206 551 -430 726 -33 26 -65 51 -71 56 -21 17 -170 96 -204 109 -94 36 -163
56 -250 73 -91 17 -215 18 -2710 17 -2214 0 -2627 -2 -2694 -14z m5261 -1072
c17 -12 35 -34 40 -49 5 -16 9 -412 9 -940 -1 -909 -1 -912 -22 -940 -11 -15
-31 -33 -43 -39 -16 -8 -709 -11 -2539 -12 -2720 0 -2561 -3 -2598 53 -16 25
-18 87 -18 933 -1 682 2 915 11 941 13 38 46 68 78 73 11 2 1152 3 2535 3
l2516 0 31 -23z m-3173 -6206 c63 -12 139 -52 194 -101 54 -49 101 -133 137
-245 10 -30 21 -59 25 -65 8 -11 42 -103 95 -254 26 -76 32 -106 29 -160 -8
-178 -123 -324 -294 -372 -52 -14 -1057 -20 -1150 -6 -180 26 -322 176 -337
355 -7 85 2 123 68 296 28 72 68 178 91 236 45 118 72 165 126 216 52 49 150
95 219 103 81 8 749 6 797 -3z m2851 -16 c33 -13 74 -32 90 -43 45 -31 104
-95 126 -139 27 -53 195 -495 204 -536 31 -147 -36 -315 -162 -403 -105 -73
-103 -73 -703 -74 -361 0 -553 3 -591 11 -109 22 -201 83 -257 171 -82 130
-85 251 -11 433 10 25 48 124 85 220 72 190 108 250 182 303 110 78 141 82
599 81 366 -2 380 -2 438 -24z m2784 5 c89 -29 176 -97 221 -174 22 -37 39
-78 131 -321 69 -182 82 -226 85 -286 9 -194 -113 -360 -298 -405 -75 -18
-1075 -21 -1166 -2 -83 16 -154 56 -211 119 -77 85 -113 184 -106 300 3 46 90
293 183 522 48 115 116 189 217 232 73 31 131 35 531 34 313 -1 367 -4 413
-19z m-5639 -1846 c114 -19 224 -99 274 -198 27 -52 194 -486 202 -522 45
-214 -80 -419 -291 -475 -39 -11 -173 -14 -602 -13 -516 0 -556 1 -608 19
-175 60 -286 225 -272 405 4 51 21 110 62 220 31 83 61 159 66 170 5 11 20 52
35 90 63 172 138 250 283 295 46 15 107 17 425 18 204 0 396 -3 426 -9z m2850
-10 c101 -40 192 -120 231 -204 29 -62 170 -434 185 -490 63 -221 -76 -448
-302 -495 -34 -7 -241 -10 -605 -8 -552 3 -554 3 -611 26 -173 70 -274 250
-244 435 8 55 185 522 216 572 50 81 160 156 255 174 22 4 220 7 440 6 315 -2
407 -5 435 -16z m2765 5 c108 -27 208 -103 255 -194 9 -19 50 -120 89 -225 40
-104 76 -199 81 -210 57 -135 48 -278 -26 -395 -47 -75 -140 -141 -233 -166
-78 -20 -1110 -20 -1186 0 -214 56 -338 259 -290 475 3 16 24 76 46 133 22 56
62 163 90 237 56 149 80 191 136 246 53 51 109 82 178 98 89 21 776 22 860 1z
m-5623 -1848 c95 -15 182 -65 243 -140 29 -36 106 -199 120 -256 2 -8 25 -69
51 -135 98 -251 103 -332 32 -467 -55 -104 -155 -180 -267 -202 -62 -13 -1100
-14 -1160 -2 -110 22 -223 115 -275 226 -27 58 -30 75 -30 160 0 91 3 101 57
245 31 83 61 159 66 170 5 11 24 58 41 105 17 47 42 101 54 120 57 88 152 152
255 173 64 13 739 16 813 3z m2834 -6 c106 -34 203 -110 244 -190 10 -19 59
-142 109 -273 104 -272 115 -315 98 -412 -25 -145 -143 -275 -287 -316 -53
-15 -1083 -21 -1164 -6 -206 36 -351 232 -324 438 6 46 58 201 109 327 18 44
28 68 60 152 37 95 80 161 134 203 50 40 135 77 192 84 26 3 49 6 50 7 1 0
168 0 371 0 265 -1 381 -5 408 -14z m2782 1 c119 -25 217 -106 271 -223 41
-88 33 -69 121 -302 96 -252 101 -333 33 -469 -46 -91 -165 -183 -263 -203
-48 -10 -1083 -12 -1145 -2 -70 11 -164 60 -217 114 -78 78 -116 180 -112 294
2 64 13 100 110 350 18 47 47 122 64 168 62 163 177 260 330 279 25 3 46 6 47
7 10 8 720 -4 761 -13z m14 -2532 c188 -39 340 -173 404 -354 24 -70 29 -236
8 -307 -57 -189 -197 -326 -389 -379 -75 -20 -6435 -20 -6510 0 -86 24 -173
70 -229 122 -198 181 -233 480 -83 698 75 109 209 199 324 217 21 3 40 8 42
10 2 2 1439 4 3192 4 2297 0 3203 -3 3241 -11z"/>
</g>
</svg>
